<?xml version="1.0" standalone="no"?>
<!DOCTYPE svg PUBLIC "-//W3C//DTD SVG 20010904//EN"
 "http://www.w3.org/TR/2001/REC-SVG-20010904/DTD/svg10.dtd">
<svg version="1.0" xmlns="http://www.w3.org/2000/svg"
 width="320.000000pt" height="312.000000pt" viewBox="0 0 320.000000 312.000000"
 preserveAspectRatio="xMidYMid meet">

<g transform="translate(0.000000,312.000000) scale(0.100000,-0.100000)"
fill="#000000" stroke="none">
<path d="M1335 2649 c-150 -16 -267 -49 -405 -113 -93 -43 -210 -115 -210
-128 0 -9 139 -99 161 -105 9 -3 34 6 55 19 273 168 684 183 979 35 293 -146
486 -402 536 -711 16 -100 6 -259 -21 -356 -31 -109 -110 -265 -175 -343 -31
-38 -55 -70 -53 -71 84 -66 139 -106 147 -106 13 0 79 82 134 165 59 90 124
252 149 374 26 124 21 343 -10 466 -64 251 -231 497 -442 649 -137 99 -360
191 -524 215 -100 15 -236 20 -321 10z"/>
<path d="M1087 2293 c-4 -3 -7 -37 -7 -75 l0 -68 -75 0 -75 0 0 -654 0 -654
90 -8 90 -7 0 -58 0 -59 80 0 80 0 0 55 0 55 120 0 120 0 0 -60 0 -60 90 0 90
0 0 68 0 69 77 22 c161 47 269 121 323 222 28 54 35 77 38 144 5 94 -6 143
-47 207 -34 53 -86 90 -157 111 l-48 14 56 25 c92 42 138 126 138 253 0 150
-116 261 -320 303 l-80 17 0 73 0 73 -82 -3 -83 -3 -3 -73 -3 -73 -122 3 -122
3 -3 73 -3 72 -78 0 c-43 0 -81 -3 -84 -7z m520 -416 c61 -32 84 -128 43 -179
-35 -45 -78 -58 -194 -58 l-106 0 0 131 0 131 113 -4 c81 -3 121 -9 144 -21z
m20 -477 c57 -25 78 -60 78 -131 0 -66 -17 -92 -80 -119 -58 -26 -117 -33
-201 -25 l-74 7 0 142 c0 79 3 146 6 149 14 13 229 -5 271 -23z"/>
<path d="M514 2213 c-109 -132 -197 -313 -225 -458 -60 -313 -7 -586 164 -852
57 -89 188 -224 282 -291 397 -284 934 -307 1358 -58 26 15 47 31 47 35 0 5
-42 30 -93 57 l-94 48 -59 -26 c-160 -72 -364 -106 -532 -89 -221 23 -394 93
-562 228 -104 84 -186 188 -250 318 -74 151 -85 201 -84 395 0 144 3 174 23
240 34 110 74 192 136 281 30 43 55 82 55 86 0 5 -29 37 -63 71 l-64 63 -39
-48z"/>
</g>
</svg>
